<svg xmlns="http://www.w3.org/2000/svg" viewBox="0 0 1440 900" role="img" aria-labelledby="title desc"><title id="title">Dashboard operacional CondoLogPro</title><desc id="desc">Painel desktop com indicadores, encomendas pendentes, notificadas e retiradas.</desc><rect width="1440" height="900" fill="#ede7da"/><rect width="1440" height="76" fill="#111419"/><text x="54" y="47" fill="#f4f1ea" font-family="Arial,sans-serif" font-size="22" font-weight="700">condolog<tspan fill="#abc5cf">pro</tspan></text><text x="1180" y="46" fill="#a7a197" font-family="Arial,sans-serif" font-size="12">ADMINISTRAÇÃO</text><rect x="0" y="76" width="224" height="824" fill="#0f2f2f"/><g fill="#abc5cf" font-family="Arial,sans-serif" font-size="13"><text x="36" y="140">VISÃO GERAL</text><text x="36" y="194">ENCOMENDAS</text><text x="36" y="248">MORADORES</text><text x="36" y="302">HISTÓRICO</text></g><text x="276" y="142" fill="#111419" font-family="Arial,sans-serif" font-size="34" font-weight="700">Operação de encomendas</text><text x="276" y="174" fill="#6c6a64" font-family="Arial,sans-serif" font-size="14">O que exige atenção hoje, sem depender de planilha ou memória.</text><g font-family="Arial,sans-serif"><rect x="276" y="214" width="250" height="132" rx="22" fill="#fff"/><text x="300" y="250" fill="#6c6a64" font-size="12">ATIVAS</text><text x="300" y="306" fill="#111419" font-size="52" font-weight="700">38</text><rect x="548" y="214" width="250" height="132" rx="22" fill="#fff2bf"/><text x="572" y="250" fill="#8a6710" font-size="12">EXIGEM ATENÇÃO</text><text x="572" y="306" fill="#8a6710" font-size="52" font-weight="700">07</text><rect x="820" y="214" width="250" height="132" rx="22" fill="#d9eee8"/><text x="844" y="250" fill="#0f5c58" font-size="12">RETIRADAS HOJE</text><text x="844" y="306" fill="#0f5c58" font-size="52" font-weight="700">12</text><rect x="1092" y="214" width="278" height="132" rx="22" fill="#111419"/><text x="1116" y="250" fill="#a7a197" font-size="12">TEMPO MÉDIO</text><text x="1116" y="306" fill="#f4f1ea" font-size="52" font-weight="700">1m42</text></g><rect x="276" y="386" width="1094" height="442" rx="24" fill="#fff"/><text x="306" y="430" fill="#111419" font-family="Arial,sans-serif" font-size="18" font-weight="700">Encomendas que pedem ação</text><text x="1190" y="430" fill="#0f5c58" font-family="Arial,sans-serif" font-size="12" font-weight="700">VER TODAS →</text><g font-family="Arial,sans-serif"><g><line x1="306" y1="462" x2="1340" y2="462" stroke="#e6e0d5"/><text x="306" y="494" fill="#6c6a64" font-size="10">RASTREIO</text><text x="500" y="494" fill="#6c6a64" font-size="10">MORADOR</text><text x="824" y="494" fill="#6c6a64" font-size="10">ENTRADA</text><text x="1030" y="494" fill="#6c6a64" font-size="10">STATUS</text></g><g><text x="306" y="548" fill="#111419" font-size="13" font-weight="700">BPX71A8BR</text><text x="500" y="548" fill="#111419" font-size="13" font-weight="700">Ana Beatriz · 1203</text><text x="824" y="548" fill="#6c6a64" font-size="12">Hoje, 09:41</text><rect x="1030" y="526" width="112" height="30" rx="15" fill="#d9eee8"/><text x="1050" y="546" fill="#0f5c58" font-size="10" font-weight="700">NOTIFICADA</text><line x1="306" y1="580" x2="1340" y2="580" stroke="#eee9e0"/></g><g><text x="306" y="632" fill="#111419" font-size="13" font-weight="700">PLM93K2BR</text><text x="500" y="632" fill="#111419" font-size="13" font-weight="700">Carlos Mendes · 0804</text><text x="824" y="632" fill="#6c6a64" font-size="12">Hoje, 08:52</text><rect x="1030" y="610" width="100" height="30" rx="15" fill="#fff2bf"/><text x="1050" y="630" fill="#8a6710" font-size="10" font-weight="700">ATENÇÃO</text><line x1="306" y1="664" x2="1340" y2="664" stroke="#eee9e0"/></g><g><text x="306" y="716" fill="#111419" font-size="13" font-weight="700">QTR18N4BR</text><text x="500" y="716" fill="#111419" font-size="13" font-weight="700">Marina Souza · 0502</text><text x="824" y="716" fill="#6c6a64" font-size="12">Ontem, 18:07</text><rect x="1030" y="694" width="94" height="30" rx="15" fill="#e9e9e6"/><text x="1050" y="714" fill="#4f504d" font-size="10" font-weight="700">ENTREGUE</text></g></g><rect x="1210" y="780" width="130" height="28" rx="14" fill="#0f5c58"/><text x="1232" y="799" fill="#fff" font-family="Arial,sans-serif" font-size="10" font-weight="700">+ NOVA ENTRADA</text></svg>